<svg width="77" height="37" viewBox="0 0 77 37" fill="none" xmlns="http://www.w3.org/2000/svg">
<path d="M46.2069 15.9373L48.96 14.6764C49.1873 14.5694 49.3352 14.3449 49.3432 14.0943C49.3511 13.7758 49.3722 13.4547 49.4092 13.1336C49.4753 12.5358 49.5809 11.9537 49.7368 11.3951C49.8082 11.134 49.7157 10.8573 49.4964 10.6955L46.9732 8.79766C46.701 8.59665 46.6323 8.22075 46.8173 7.93621L48.3682 5.5163C48.5452 5.2422 48.8993 5.14561 49.1925 5.28658L51.8135 6.55787C52.0645 6.68579 52.3737 6.63098 52.5771 6.42214C53.4331 5.54241 54.4292 4.80104 55.5283 4.22413C55.7925 4.08578 55.9299 3.77773 55.8586 3.49058L55.4332 1.78595C55.3566 1.46225 55.5336 1.12551 55.8507 1.00803L58.5588 0.0421588C58.6143 0.0212751 58.6698 0.00821641 58.7253 0.00299548C58.9948 -0.0231092 59.2616 0.123075 59.3779 0.37629L60.3343 2.40724L60.5669 2.90322C61.1058 2.88495 61.6554 2.90323 62.205 2.96327C62.9447 3.04159 63.666 3.18776 64.3477 3.39399C64.6093 3.4723 64.892 3.38616 65.0558 3.16949L66.6014 1.15943C66.8154 0.885331 67.2012 0.814855 67.4945 1.00281L69.3677 2.17491L69.9041 2.51165C70.1974 2.69438 70.3057 3.06769 70.1524 3.37312L69.0797 5.53719C68.9529 5.78779 69.0005 6.08799 69.1986 6.28116C69.7825 6.86591 70.3057 7.51071 70.7495 8.20509C70.7918 8.26252 70.8262 8.31995 70.8632 8.37738C70.8737 8.39826 70.8896 8.41653 70.9028 8.4348C71.064 8.64625 71.3361 8.73762 71.595 8.67236L74.3957 7.99624C74.4274 7.9858 74.4617 7.98319 74.4908 7.98058C74.7867 7.95187 75.0747 8.12938 75.1804 8.4087L76.1606 11.074C76.2795 11.3951 76.1289 11.7527 75.8145 11.8989L72.9425 13.2146C72.6968 13.3242 72.5515 13.5696 72.5647 13.8359C72.5911 14.418 72.5726 15.0106 72.5066 15.6136C72.4722 15.9321 72.4246 16.2453 72.3639 16.556C72.3163 16.8066 72.4141 17.065 72.6202 17.219L75.043 19.0437C75.3098 19.2421 75.3785 19.6154 75.1989 19.9L73.6612 22.2912C73.4762 22.5809 73.101 22.688 72.784 22.5365L70.7099 21.5315C70.4325 21.3958 70.1022 21.4662 69.9014 21.6986C69.1299 22.6201 68.2184 23.4137 67.2012 24.0585C66.9581 24.2073 66.8392 24.497 66.9106 24.7737L67.5288 27.2693C67.6134 27.6035 67.4258 27.9454 67.0982 28.0655L64.4111 29.0314C64.0888 29.1489 63.7294 28.9975 63.5894 28.6946L63.5313 28.5772L62.4216 26.2173C62.3027 25.9641 62.0438 25.8153 61.7611 25.8336H61.7584C61.0847 25.8806 60.3951 25.8675 59.6976 25.7944C59.325 25.7552 58.9631 25.6952 58.6011 25.6247C58.3501 25.5725 58.0938 25.6665 57.9379 25.8675L56.3685 27.9063C56.1545 28.1856 55.7582 28.2561 55.4623 28.0681L53.05 26.5567C52.9813 26.5123 52.9232 26.4575 52.8783 26.4C52.7303 26.2069 52.696 25.9354 52.807 25.7083L53.6683 23.9801C53.7713 23.7687 53.7528 23.5155 53.6234 23.3249C53.589 23.2753 53.5468 23.2283 53.4992 23.1866C52.3076 22.2024 51.3327 20.9964 50.6193 19.6337C50.503 19.4014 50.2494 19.2682 49.9905 19.2839C49.9535 19.2839 49.9165 19.2917 49.8795 19.3022L47.6126 19.853C47.2849 19.9339 46.9468 19.7564 46.8279 19.4405L46.8041 19.3779L45.8476 16.7805C45.7314 16.4516 45.882 16.0939 46.2017 15.9477L46.2069 15.9373ZM67.1378 13.2616C67.0612 12.81 66.9396 12.3453 66.7626 11.8754C66.427 10.98 65.4864 9.81835 64.67 9.3067C64.5828 9.25188 64.4957 9.19968 64.4085 9.14747C59.0423 6.0384 52.9998 10.9304 55.1241 16.7987C55.4041 17.5662 56.1017 18.506 56.8177 19.1195C56.9841 19.2604 57.1506 19.3857 57.3117 19.4823C58.0568 19.9443 58.8151 20.2498 59.5708 20.4142C63.8695 21.3592 67.8829 17.7907 67.1378 13.2616Z" fill="#AEC3FF"/>
<path d="M28.0213 27.6479L30.0158 26.7486C30.1809 26.6737 30.2874 26.5135 30.2927 26.3351C30.298 26.1077 30.314 25.8803 30.3407 25.6503C30.3886 25.2239 30.4658 24.8104 30.5777 24.4124C30.6309 24.2264 30.5617 24.03 30.4046 23.9137L28.5752 22.5621C28.3781 22.42 28.3302 22.1512 28.4633 21.947L29.587 20.2233C29.7149 20.0295 29.9705 19.9597 30.1836 20.0579L32.0848 20.9624C32.2686 21.0555 32.4923 21.0141 32.6387 20.8668C33.2592 20.2414 33.9808 19.7117 34.7796 19.3033C34.9714 19.2051 35.0699 18.9855 35.0193 18.7813L34.7104 17.5667C34.6545 17.3367 34.7823 17.0964 35.014 17.0137L36.9765 16.3262C37.0164 16.3107 37.0564 16.303 37.099 16.3004C37.2934 16.2797 37.4878 16.3857 37.5703 16.5666L38.2627 18.0112L38.4304 18.3627C38.8192 18.3497 39.2186 18.3627 39.6181 18.4066C40.156 18.4634 40.6779 18.5668 41.1732 18.7141C41.3622 18.7684 41.5673 18.7089 41.6871 18.5539L42.8082 17.1222C42.9626 16.9284 43.2422 16.8767 43.4553 17.0111L44.8133 17.8458L45.2021 18.0861C45.4151 18.2154 45.4923 18.4815 45.3832 18.7012L44.6056 20.244C44.5124 20.4223 44.547 20.6368 44.6908 20.7738C45.1142 21.1899 45.4923 21.6499 45.8146 22.1434C45.8465 22.1848 45.8705 22.2236 45.8971 22.2675C45.9051 22.283 45.9158 22.2959 45.9264 22.3088C46.0436 22.4587 46.2406 22.5233 46.4297 22.4794L48.4614 21.9961C48.4827 21.9884 48.5094 21.9858 48.5307 21.9858C48.7463 21.9651 48.9541 22.0918 49.0313 22.2908L49.7423 24.1876C49.8275 24.4176 49.721 24.6709 49.4919 24.7742L47.4096 25.7097C47.2312 25.7873 47.1247 25.963 47.1353 26.1517C47.154 26.5651 47.1407 26.989 47.0927 27.418C47.0688 27.6454 47.0315 27.8676 46.9889 28.0899C46.9543 28.2682 47.0261 28.4517 47.1753 28.5628L48.9328 29.8627C49.1271 30.0048 49.1777 30.271 49.0446 30.4726L47.9288 32.1756C47.7957 32.3823 47.5241 32.4573 47.2951 32.3513L45.7906 31.6355C45.5882 31.5399 45.3485 31.589 45.2047 31.7544C44.6455 32.4108 43.9852 32.9767 43.2475 33.4341C43.0718 33.5401 42.9866 33.7468 43.0372 33.9432L43.4845 35.7186C43.5458 35.9564 43.41 36.1993 43.173 36.2846L41.2264 36.972C40.9921 37.0547 40.7312 36.9487 40.63 36.7317L40.5873 36.649L39.7832 34.9692C39.6979 34.7883 39.5089 34.6823 39.3039 34.6953C38.8139 34.7289 38.3159 34.7211 37.81 34.6668C37.541 34.6384 37.2774 34.5971 37.0138 34.5454C36.8327 34.5066 36.6463 34.5738 36.5345 34.7185L35.3974 36.1709C35.243 36.3699 34.9554 36.419 34.7397 36.2872L32.9929 35.2095C32.9423 35.1785 32.9023 35.1398 32.8677 35.0984C32.7612 34.9614 32.7346 34.7676 32.8171 34.6048L33.4429 33.3747C33.5175 33.2222 33.5041 33.0439 33.4109 32.907C33.387 32.8708 33.355 32.8372 33.3204 32.8087C32.4576 32.1084 31.7493 31.2504 31.2327 30.2787C31.1475 30.1133 30.9638 30.0177 30.7774 30.0307C30.7507 30.0307 30.7241 30.0358 30.6975 30.0436L29.0545 30.4364C28.8175 30.4932 28.5725 30.3666 28.4873 30.1418L28.4713 30.0978L27.7763 28.2501C27.6911 28.0149 27.8029 27.7617 28.0346 27.6557L28.0213 27.6479ZM43.1943 25.7408C43.1384 25.4177 43.0505 25.0869 42.9227 24.7536C42.6804 24.1178 41.9987 23.2883 41.4048 22.9239C41.3409 22.8851 41.277 22.8464 41.2158 22.8102C37.3253 20.5981 32.9449 24.0791 34.4841 28.2578C34.6864 28.8031 35.1924 29.4724 35.7116 29.9092C35.8341 30.0074 35.954 30.0978 36.0685 30.1676C36.609 30.4958 37.1603 30.7129 37.7061 30.8318C40.8217 31.5037 43.7322 28.9633 43.1916 25.7408H43.1943Z" fill="#D2E0FF"/>
<path d="M0.56572 13.5702L3.51577 13.048C3.76095 13.001 3.95921 12.8235 4.02964 12.5833C4.11832 12.2778 4.22264 11.975 4.33741 11.6721C4.5539 11.1108 4.80431 10.5755 5.09384 10.0742C5.22948 9.83926 5.21123 9.54945 5.0443 9.33536L3.12193 6.86026C2.91587 6.59917 2.94454 6.21798 3.19494 5.98822L5.29469 4.04052C5.53466 3.82121 5.89461 3.81598 6.1398 4.02485L8.31517 5.91774C8.52384 6.10572 8.83164 6.13183 9.07944 5.9804C10.1202 5.34856 11.2626 4.88121 12.4599 4.60185C12.7494 4.53396 12.9581 4.27028 12.9633 3.97525L12.992 2.22073C12.9998 1.88654 13.2554 1.60719 13.5893 1.57585L16.4194 1.32521C16.4768 1.31998 16.5341 1.31999 16.5889 1.33043C16.8523 1.37221 17.0688 1.58108 17.1158 1.85522L17.5097 4.06139L17.6036 4.59923C18.1226 4.71933 18.6417 4.876 19.1503 5.07182C19.8363 5.33552 20.4858 5.65926 21.0858 6.03C21.3153 6.17099 21.6074 6.16054 21.8187 5.99345L23.8089 4.44259C24.0828 4.23111 24.4688 4.26245 24.7009 4.5157L26.1877 6.12138L26.6129 6.58351C26.845 6.83415 26.8529 7.22317 26.6285 7.47903L25.0505 9.30142C24.8653 9.51029 24.8313 9.81315 24.9722 10.0507C25.3817 10.7661 25.713 11.5207 25.9608 12.3013C25.9869 12.3666 26.0051 12.4319 26.026 12.4971C26.0312 12.5206 26.0416 12.5415 26.0495 12.5624C26.1486 12.8078 26.3859 12.9645 26.6494 12.9697L29.4951 13.0245C29.5264 13.0245 29.5603 13.0271 29.589 13.0324C29.8786 13.082 30.1081 13.3222 30.1368 13.6224L30.3898 16.4474C30.4211 16.7894 30.1863 17.0949 29.8473 17.1575L26.7694 17.7006C26.5085 17.745 26.3051 17.946 26.2503 18.2045C26.1251 18.7737 25.9556 19.3428 25.7391 19.9068C25.6243 20.207 25.4991 20.4968 25.3608 20.7814C25.2513 21.0138 25.28 21.2853 25.4365 21.4864L27.2832 23.8649C27.4867 24.126 27.458 24.5045 27.2128 24.7317L25.1339 26.6559C24.8835 26.8883 24.4975 26.8987 24.234 26.6716L22.5125 25.1755C22.2804 24.9745 21.9491 24.9588 21.6987 25.1311C20.7284 25.8256 19.6537 26.3635 18.5191 26.729C18.2504 26.8099 18.0626 27.0606 18.0574 27.3478L18.0105 29.9169C18.0053 30.2615 17.7392 30.5435 17.3949 30.5774L14.5831 30.8307C14.2466 30.862 13.9414 30.6244 13.884 30.2955L13.8606 30.1675L13.4041 27.6063C13.3545 27.3321 13.1459 27.1206 12.872 27.0684H12.8694C12.2147 26.9405 11.56 26.7551 10.9131 26.5071C10.5688 26.3739 10.2375 26.2251 9.90888 26.0658C9.68195 25.951 9.41331 25.9771 9.21507 26.1311L7.1962 27.7055C6.91971 27.9222 6.52322 27.8882 6.28846 27.6324L4.37393 25.5593C4.31915 25.4993 4.28003 25.4314 4.24873 25.3635C4.15744 25.139 4.19397 24.8701 4.3583 24.6768L5.62335 23.2252C5.77724 23.0451 5.82158 22.797 5.74854 22.5803C5.72768 22.5229 5.70161 22.4681 5.66509 22.4158C4.78086 21.1652 4.15744 19.7501 3.82618 18.2515C3.77401 17.9956 3.56796 17.805 3.31756 17.7528C3.28104 17.745 3.24451 17.7424 3.20539 17.7424L0.899599 17.7006C0.565727 17.6954 0.289219 17.4369 0.257919 17.1027L0.252729 17.0374L0.00230408 14.2856C-0.0263882 13.9383 0.210972 13.6303 0.555277 13.5702H0.56572ZM21.224 16.2803C21.2657 15.8234 21.2683 15.343 21.224 14.8469C21.1327 13.8966 20.5328 12.5337 19.8859 11.834C19.8181 11.7583 19.7477 11.6852 19.6772 11.612C15.35 7.24928 8.33345 10.4476 8.85773 16.6589C8.92816 17.4708 9.3533 18.557 9.88019 19.3298C10.0054 19.5073 10.1306 19.6718 10.2584 19.805C10.8505 20.4394 11.4974 20.9276 12.1756 21.2775C16.0359 23.2774 20.7806 20.8441 21.2292 16.2777L21.224 16.2803Z" fill="#AEC3FF"/>
</svg>
