<svg width="755" height="81" viewBox="0 0 755 81" fill="none" xmlns="http://www.w3.org/2000/svg">
<path d="M47.1013 81H707.894C733.867 81 755 62.8297 755 40.4981C755 29.6826 750.097 19.5136 741.201 11.8607C732.305 4.21162 720.478 0 707.894 0H47.1013C21.1285 0 -1.24391e-05 18.1664 -1.24391e-05 40.4981C-1.24391e-05 51.3135 4.89827 61.4865 13.7945 69.1394C22.6907 76.7884 34.5178 81 47.1013 81ZM707.894 3.48002C719.397 3.48002 730.207 7.33161 738.338 14.3226C746.473 21.3174 750.953 30.6116 750.953 40.4981C750.953 60.9135 731.634 77.52 707.894 77.52H47.1013C35.5984 77.52 24.7888 73.6684 16.6579 66.6774C8.52704 59.6826 4.04741 50.3845 4.04741 40.4942C4.04741 20.0826 23.3615 3.47614 47.1013 3.47614H707.894V3.48002Z" fill="#2E437C"/>
</svg>
